<svg id="Layer_1" data-name="Layer 1" xmlns="http://www.w3.org/2000/svg" viewBox="0 0 124 124"><defs><style>.cls-1{fill:#46629f;}.cls-2{fill:#fff;}</style></defs><title>portfolio_icons</title><g id="layer1"><path id="rect3758-1" class="cls-1" d="M61.88.24h0a61.82,61.82,0,0,1,61.81,61.81h0a61.81,61.81,0,0,1-61.81,61.81h0A61.81,61.81,0,0,1,.06,62.05h0A61.82,61.82,0,0,1,61.88.24Z"/><path id="rect2989-1" class="cls-2" d="M71.69,15.08C54.93,15.08,49.4,22.77,49.4,36V46.39h-11V62.06h11v47H69.7v-47H83.5l1.86-15.67H69.7V37.08c0-4.21.93-6.34,7.46-6.34h8.2V15.08Z"/></g></svg>