<svg id="Layer_1" data-name="Layer 1" xmlns="http://www.w3.org/2000/svg" viewBox="0 0 124 124"><defs><style>.cls-1{fill:#181818;}.cls-2{fill:#fff;}</style></defs><title>portfolio_icons</title><circle class="cls-1" cx="62" cy="62" r="61.88"/><path class="cls-1" d="M84.28,69.23c.7,4.58-.23,8.74-3.92,11.94a13.49,13.49,0,0,1-5.86,2.66,45.91,45.91,0,0,1-12.58,1,44.8,44.8,0,0,1-12.39-1c-3-.7-5.74-1.88-7.65-4.46-3-4.1-3.82-11.9,1.21-16.16a7.33,7.33,0,0,1,4.39-1.88c1.86-.12,3.72-.35,5.58-.34,4.7.07,9.4.3,14.09.33,2.14,0,4.3-.48,6.43-.35a16.62,16.62,0,0,1,5.72,1.25A8.7,8.7,0,0,1,84.28,69.23Zm-7.09,3c0-3.3-2-6-4.48-6s-4.47,2.68-4.47,6,2,6,4.47,6S77.19,75.54,77.19,72.24Zm-21.35,0c0-3.3-2-6-4.48-6s-4.47,2.68-4.47,6,2,6,4.47,6S55.84,75.54,55.84,72.24Z"/><path class="cls-2" d="M89.48,52.85a18.41,18.41,0,0,1,3.21,11.83c-.24,5.6-1.37,10.89-5,15.39a19.76,19.76,0,0,1-9.55,6.32,35.94,35.94,0,0,1-11.56,1.55c-3.93,0-7.86.1-11.78,0a28.72,28.72,0,0,1-12.49-3,19,19,0,0,1-9.52-11.47,31.78,31.78,0,0,1-1.47-10.24A18,18,0,0,1,35,52.13a4.1,4.1,0,0,0,1-3.19,28.09,28.09,0,0,1,.53-6.64A49.22,49.22,0,0,1,38,36.87a2.16,2.16,0,0,1,.27-.55c.18-.28.91-.39,1.63-.2a45.85,45.85,0,0,1,13,6.13,2.35,2.35,0,0,0,1.55.26A48.16,48.16,0,0,1,65.1,42c1.44.07,2.87.43,4.3.53a3.24,3.24,0,0,0,1.83-.38A53.86,53.86,0,0,1,83,36.38c.39-.12.8-.22,1.26-.32A1.6,1.6,0,0,1,86,37a17.55,17.55,0,0,1,.87,2.81,45.43,45.43,0,0,1,1.06,8.47A6.83,6.83,0,0,0,89.48,52.85ZM80.36,81.17C84.05,78,85,73.81,84.28,69.23a8.7,8.7,0,0,0-5-7A16.62,16.62,0,0,0,73.58,61c-2.13-.13-4.29.37-6.43.35-4.69,0-9.39-.26-14.09-.33-1.86,0-3.72.22-5.58.34a7.33,7.33,0,0,0-4.39,1.88c-5,4.26-4.25,12.06-1.21,16.16,1.91,2.58,4.65,3.76,7.65,4.46a44.8,44.8,0,0,0,12.39,1,45.91,45.91,0,0,0,12.58-1A13.49,13.49,0,0,0,80.36,81.17Z"/><ellipse class="cls-2" cx="72.71" cy="72.24" rx="4.48" ry="5.98"/><ellipse class="cls-2" cx="51.36" cy="72.24" rx="4.48" ry="5.98"/></svg>