<svg id="Layer_1" data-name="Layer 1" xmlns="http://www.w3.org/2000/svg" viewBox="0 0 124 124"><defs><style>.cls-1{fill:#fff;}.cls-2{fill:#010101;}</style></defs><title>portfolio_icons</title><g id="_Group_" data-name="&lt;Group&gt;"><path class="cls-1" d="M62,7.92a54.13,54.13,0,0,1,17.1,105.44c-2.73.56-3.84-1.09-3.84-2.63v-15c0-5-1.64-8.33-3.62-10,12-1.42,24.84-5.79,24.84-26.6A20.88,20.88,0,0,0,91,44.69c.56-1.42,2.3-6.78-.65-14.22,0,0-4.37-1.42-14.68,5.48a53.16,53.16,0,0,0-13.69-2,51.82,51.82,0,0,0-13.69,2c-10.41-6.9-14.78-5.48-14.78-5.48-2.94,7.44-1.2,12.82-.65,14.22a20.87,20.87,0,0,0-5.48,14.47c0,20.81,12.82,25.18,24.84,26.6a12.34,12.34,0,0,0-3.5,7.34c-3.06,1.31-11.05,3.84-15.88-4.49,0,0-2.85-5.14-8.21-5.48,0,0-5.36-.09-.44,3.29,0,0,3.62,1.64,6,7.87,0,0,3.29,10.4,18.4,7.12v9.32c0,1.42-1.08,3.07-3.84,2.63A54.14,54.14,0,0,1,62,7.92Z"/><path class="cls-2" d="M62,.24A61.81,61.81,0,1,1,.09,62.1,61.85,61.85,0,0,1,62,.24Zm54,61.76a54,54,0,1,0-71.18,51.36c2.73.44,3.84-1.21,3.84-2.63v-9.32c-15.11,3.28-18.4-7.12-18.4-7.12-2.41-6.23-6-7.87-6-7.87-4.92-3.38.44-3.29.44-3.29,5.36.34,8.2,5.48,8.2,5.48,4.81,8.33,12.83,5.8,15.89,4.49a12.34,12.34,0,0,1,3.5-7.34c-12-1.42-24.84-5.79-24.84-26.6a20.88,20.88,0,0,1,5.48-14.47c-.56-1.42-2.29-6.78.65-14.22,0,0,4.37-1.42,14.78,5.48A51.82,51.82,0,0,1,62,34a53.35,53.35,0,0,1,13.69,2c10.28-6.9,14.68-5.48,14.68-5.48,3,7.44,1.21,12.82.65,14.22a20.87,20.87,0,0,1,5.48,14.47c0,20.81-12.82,25.18-24.84,26.6,2,1.65,3.62,4.93,3.62,10v15c0,1.54,1.08,3.16,3.84,2.63A54.24,54.24,0,0,0,115.94,62Z"/></g></svg>