<svg id="Layer_1" data-name="Layer 1" xmlns="http://www.w3.org/2000/svg" viewBox="0 0 124 124"><defs><style>.cls-1{fill:#181818;}.cls-2{fill:#fff;}</style></defs><title>portfolio_icons</title><path class="cls-1" d="M62,.38A61.67,61.67,0,1,1,.38,62.05,61.67,61.67,0,0,1,62,.38Zm24,83.71V67.47c0-9.28-5.23-13.59-11.88-13.59-5.37,0-8.72,2.94-9.34,5v-4.7H54.33c.15,2.51,0,29.94,0,29.94H64.86V67.9a6.92,6.92,0,0,1,.22-2.45,5.33,5.33,0,0,1,5.06-3.67c3.63,0,5.29,2.77,5.29,6.82V84.09H86.06ZM43.69,50.39c3.51,0,5.71-2.29,5.68-5.23S47.18,40,43.73,40,38,42.22,38,45.19s2.19,5.2,5.58,5.2Zm4.91,33.7V54.15H39.25V84.09Z"/><path class="cls-2" d="M86.06,67.47V84.09H75.43V68.6c0-4-1.66-6.82-5.29-6.82a5.33,5.33,0,0,0-5.06,3.67,6.92,6.92,0,0,0-.22,2.45V84.11H54.33s.15-27.43,0-29.94H64.84v4.7c.62-2,4-5,9.34-5C80.83,53.88,86.06,58.19,86.06,67.47Z"/><path class="cls-2" d="M49.37,45.16c0,2.94-2.17,5.23-5.68,5.23h-.08c-3.39,0-5.58-2.29-5.58-5.2S40.29,40,43.73,40,49.3,42.22,49.37,45.16Z"/><rect class="cls-2" x="39.25" y="54.15" width="9.35" height="29.94"/></svg>