<svg id="Layer_1" data-name="Layer 1" xmlns="http://www.w3.org/2000/svg" viewBox="0 0 124 124"><defs><style>.cls-1{fill:#0a699c;}.cls-2{fill:#fff;}</style></defs><title>portfolio_icons</title><circle class="cls-1" cx="62.04" cy="62.04" r="61.67"/><path class="cls-2" d="M48.6,84.09H39.25V54.14H48.6Zm-4.91-33.7h-.08c-3.39,0-5.58-2.29-5.58-5.21s2.26-5.2,5.7-5.2,5.57,2.24,5.64,5.18S47.2,50.39,43.69,50.39ZM86,84.09H75.43V68.6c0-4-1.66-6.82-5.29-6.82a5.32,5.32,0,0,0-5.06,3.66,7,7,0,0,0-.22,2.46V84.11H54.33s.15-27.44,0-29.94H64.84v4.69c.62-2,4-5,9.34-5,6.65,0,11.88,4.31,11.88,13.58V84.09Z"/></svg>